<svg width="16" height="16" viewBox="0 0 16 16" fill="none" xmlns="http://www.w3.org/2000/svg">
<path d="M16 7.85265C16 6.87998 15.2053 6.08931 14.2287 6.08931C13.752 6.08931 13.32 6.27998 13.002 6.58665C11.7953 5.79265 10.1627 5.28731 8.35467 5.22265L9.34333 2.10998L12.0207 2.73731L12.0167 2.77598C12.0167 3.57131 12.6667 4.21798 13.466 4.21798C14.2647 4.21798 14.914 3.57131 14.914 2.77598C14.914 1.98065 14.264 1.33331 13.466 1.33331C12.8527 1.33331 12.33 1.71598 12.1187 2.25265L9.23267 1.57598C9.10667 1.54531 8.97867 1.61798 8.93933 1.74198L7.83667 5.21331C5.94467 5.23598 4.23067 5.74531 2.97 6.56331C2.654 6.27131 2.23467 6.08865 1.77067 6.08865C0.794 6.08865 0 6.87998 0 7.85265C0 8.49931 0.355333 9.05998 0.878 9.36665C0.843333 9.55465 0.820667 9.74465 0.820667 9.93798C0.820667 12.5453 4.026 14.6666 7.96667 14.6666C11.9073 14.6666 15.1133 12.5453 15.1133 9.93798C15.1133 9.75531 15.094 9.57531 15.0633 9.39798C15.618 9.09998 16 8.52331 16 7.85265ZM4.51733 9.06331C4.51733 8.48465 4.99067 8.01331 5.572 8.01331C6.15333 8.01331 6.626 8.48465 6.626 9.06331C6.626 9.64198 6.15333 10.1126 5.572 10.1126C4.99067 10.1126 4.51733 9.64198 4.51733 9.06331ZM10.558 12.176C10.0267 12.7046 9.19267 12.962 8.00867 12.962L8 12.96L7.99133 12.962C6.80667 12.962 5.97267 12.7046 5.442 12.176C5.34533 12.08 5.34533 11.9233 5.442 11.8273C5.53867 11.7306 5.696 11.7306 5.79267 11.8273C6.226 12.2586 6.94533 12.468 7.99133 12.468L8 12.47L8.00867 12.468C9.05467 12.468 9.774 12.258 10.2073 11.8266C10.304 11.73 10.4613 11.7306 10.558 11.8266C10.6547 11.9233 10.6547 12.0793 10.558 12.176ZM10.432 10.1126C9.85067 10.1126 9.378 9.64198 9.378 9.06331C9.378 8.48465 9.85067 8.01331 10.432 8.01331C11.0133 8.01331 11.486 8.48465 11.486 9.06331C11.486 9.64198 11.0133 10.1126 10.432 10.1126Z" fill="#0F1923"/>
</svg>
