<svg width="23" height="22" viewBox="0 0 23 22" fill="none" xmlns="http://www.w3.org/2000/svg">
<path d="M21.5938 18.75H1.28125C1.07405 18.75 0.875336 18.8323 0.728823 18.9788C0.58231 19.1253 0.5 19.324 0.5 19.5312V21.0938C0.5 21.301 0.58231 21.4997 0.728823 21.6462C0.875336 21.7927 1.07405 21.875 1.28125 21.875H21.5938C21.801 21.875 21.9997 21.7927 22.1462 21.6462C22.2927 21.4997 22.375 21.301 22.375 21.0938V19.5312C22.375 19.324 22.2927 19.1253 22.1462 18.9788C21.9997 18.8323 21.801 18.75 21.5938 18.75ZM21.5938 12.5H1.28125C1.07405 12.5 0.875336 12.5823 0.728823 12.7288C0.58231 12.8753 0.5 13.074 0.5 13.2812V14.8438C0.5 15.051 0.58231 15.2497 0.728823 15.3962C0.875336 15.5427 1.07405 15.625 1.28125 15.625H21.5938C21.801 15.625 21.9997 15.5427 22.1462 15.3962C22.2927 15.2497 22.375 15.051 22.375 14.8438V13.2812C22.375 13.074 22.2927 12.8753 22.1462 12.7288C21.9997 12.5823 21.801 12.5 21.5938 12.5ZM21.5938 6.25H1.28125C1.07405 6.25 0.875336 6.33231 0.728823 6.47882C0.58231 6.62534 0.5 6.82405 0.5 7.03125V8.59375C0.5 8.80095 0.58231 8.99966 0.728823 9.14618C0.875336 9.29269 1.07405 9.375 1.28125 9.375H21.5938C21.801 9.375 21.9997 9.29269 22.1462 9.14618C22.2927 8.99966 22.375 8.80095 22.375 8.59375V7.03125C22.375 6.82405 22.2927 6.62534 22.1462 6.47882C21.9997 6.33231 21.801 6.25 21.5938 6.25ZM21.5938 0H1.28125C1.07405 0 0.875336 0.08231 0.728823 0.228823C0.58231 0.375336 0.5 0.57405 0.5 0.78125V2.34375C0.5 2.55095 0.58231 2.74966 0.728823 2.89618C0.875336 3.04269 1.07405 3.125 1.28125 3.125H21.5938C22.5 4 21.9997 3.04269 22.1462 2.89618C22.2927 2.74966 22.375 2.55095 22.375 2.34375V0.78125C22.375 0.57405 22.2927 0.375336 22.1462 0.228823C21.9997 0.08231 21.801 0 21.5938 0Z" fill="black"/>
</svg>
